<svg xmlns="http://www.w3.org/2000/svg" width="1200" height="630" viewBox="0 0 1200 630" role="img" aria-labelledby="title desc"><title id="title">Kush and the Twenty-Fifth Dynasty</title><desc id="desc">Original Afrodescendant Ali editorial diagram.</desc><rect width="1200" height="630" fill="#08131d"/><path d="M0 535H1200" stroke="#fedb95" stroke-opacity=".28"/><path d="M70 0V630M1130 0V630" stroke="#fedb95" stroke-opacity=".12"/><text x="72" y="100" fill="#faf9f4" font-family="Georgia,serif" font-size="54">The Verified History Is Enough</text><text x="72" y="145" fill="#fedb95" font-family="Arial,sans-serif" font-size="23" letter-spacing="3">KUSH • EGYPT • DYNASTY 25 • EVIDENCE</text><path d="M300 190C250 260 360 315 300 390C250 455 335 505 300 545" fill="none" stroke="#c5c6ca" stroke-width="16" stroke-linecap="round"/><rect x="120" y="205" width="280" height="125" rx="12" fill="none" stroke="#fedb95" stroke-width="3"/><rect x="120" y="380" width="280" height="125" rx="12" fill="none" stroke="#fedb95" stroke-width="3"/><text x="260" y="255" text-anchor="middle" fill="#faf9f4" font-family="Georgia,serif" font-size="38">EGYPT</text><text x="260" y="300" text-anchor="middle" fill="#fedb95" font-family="Arial,sans-serif" font-size="20">NORTH</text><text x="260" y="430" text-anchor="middle" fill="#faf9f4" font-family="Georgia,serif" font-size="38">KUSH</text><text x="260" y="475" text-anchor="middle" fill="#fedb95" font-family="Arial,sans-serif" font-size="20">NUBIA • SOUTH</text><path d="M510 250H1100" stroke="#fedb95" stroke-width="4"/><path d="M510 430H1100" stroke="#fedb95" stroke-width="4"/><g fill="#faf9f4" font-family="Arial,sans-serif"><text x="530" y="230" font-size="24">c. 747–664 BCE</text><text x="530" y="295" font-size="30">Piye • Taharqa • Twenty-Fifth Dynasty</text><text x="530" y="410" font-size="24">Historical recovery discipline</text><text x="530" y="475" font-size="30">Challenge exclusion. Reject unsupported claims.</text></g><text x="72" y="585" fill="#fedb95" font-family="Arial, sans-serif" font-size="20" letter-spacing="4">AFRODESCENDANT ALI • ORIGINAL EDITORIAL DIAGRAM</text></svg>