<svg xmlns="http://www.w3.org/2000/svg" width="1200" height="630" viewBox="0 0 1200 630" role="img" aria-labelledby="title desc"><title id="title">Controlled Black World source infrastructure</title><desc id="desc">Original Afrodescendant Ali editorial diagram.</desc><rect width="1200" height="630" fill="#08131d"/><path d="M0 535H1200" stroke="#fedb95" stroke-opacity=".28"/><path d="M70 0V630M1130 0V630" stroke="#fedb95" stroke-opacity=".12"/><text x="72" y="105" fill="#faf9f4" font-family="Georgia,serif" font-size="55">Controlled Source Infrastructure</text><text x="72" y="150" fill="#fedb95" font-family="Arial,sans-serif" font-size="23" letter-spacing="3">BOUNDARIES • VERIFICATION • HUMAN AUTHORITY</text><g fill="none" stroke="#fedb95" stroke-width="4"><circle cx="160" cy="320" r="48"/><circle cx="395" cy="250" r="48"/><circle cx="395" cy="390" r="48"/><circle cx="650" cy="320" r="70"/><rect x="850" y="240" width="250" height="160" rx="18"/></g><g stroke="#c5c6ca" stroke-width="3"><path d="M208 320L580 320"/><path d="M443 250L590 300"/><path d="M443 390L590 340"/><path d="M720 320L850 320"/></g><g fill="#faf9f4" font-family="Arial,sans-serif" text-anchor="middle"><text x="160" y="315" font-size="20">APPROVED</text><text x="160" y="340" font-size="20">SOURCES</text><text x="395" y="255" font-size="18">LIMITS</text><text x="395" y="395" font-size="18">HASHES</text><text x="650" y="315" font-size="20">VERIFY</text><text x="650" y="342" font-size="20">&amp; STOP</text><text x="975" y="305" font-size="22">EDITORIAL</text><text x="975" y="336" font-size="22">RECORD</text></g><text x="860" y="440" fill="#fedb95" font-family="Georgia,serif" font-size="34">93 canonical URLs</text><text x="860" y="478" fill="#faf9f4" font-family="Arial,sans-serif" font-size="23">178 tests • 6/6 Drive checks</text><text x="72" y="585" fill="#fedb95" font-family="Arial, sans-serif" font-size="20" letter-spacing="4">AFRODESCENDANT ALI • ORIGINAL EDITORIAL DIAGRAM</text></svg>