<svg xmlns="http://www.w3.org/2000/svg" width="1200" height="630" viewBox="0 0 1200 630" role="img" aria-labelledby="title desc"><title id="title">Black church institutional capacity framework</title><desc id="desc">Original Afrodescendant Ali editorial diagram.</desc><rect width="1200" height="630" fill="#08131d"/><path d="M0 535H1200" stroke="#fedb95" stroke-opacity=".28"/><path d="M70 0V630M1130 0V630" stroke="#fedb95" stroke-opacity=".12"/><text x="72" y="100" fill="#faf9f4" font-family="Georgia,serif" font-size="54">From Trust to Institutional Capacity</text><text x="72" y="145" fill="#fedb95" font-family="Arial,sans-serif" font-size="23" letter-spacing="3">GOVERNANCE BEFORE GROWTH</text><circle cx="600" cy="340" r="105" fill="none" stroke="#fedb95" stroke-width="5"/><text x="600" y="330" text-anchor="middle" fill="#faf9f4" font-family="Georgia,serif" font-size="30">DURABLE</text><text x="600" y="370" text-anchor="middle" fill="#faf9f4" font-family="Georgia,serif" font-size="30">CAPACITY</text><circle cx="260" cy="250" r="62" fill="none" stroke="#c5c6ca" stroke-width="3"/><path d="M260 250L600 340" stroke="#fedb95" stroke-opacity=".5" stroke-width="3"/><text x="260" y="256" text-anchor="middle" fill="#faf9f4" font-family="Arial,sans-serif" font-size="17">GOVERNANCE</text><circle cx="260" cy="430" r="62" fill="none" stroke="#c5c6ca" stroke-width="3"/><path d="M260 430L600 340" stroke="#fedb95" stroke-opacity=".5" stroke-width="3"/><text x="260" y="436" text-anchor="middle" fill="#faf9f4" font-family="Arial,sans-serif" font-size="17">RESILIENCE</text><circle cx="445" cy="205" r="62" fill="none" stroke="#c5c6ca" stroke-width="3"/><path d="M445 205L600 340" stroke="#fedb95" stroke-opacity=".5" stroke-width="3"/><text x="445" y="211" text-anchor="middle" fill="#faf9f4" font-family="Arial,sans-serif" font-size="17">BANKING</text><circle cx="755" cy="205" r="62" fill="none" stroke="#c5c6ca" stroke-width="3"/><path d="M755 205L600 340" stroke="#fedb95" stroke-opacity=".5" stroke-width="3"/><text x="755" y="211" text-anchor="middle" fill="#faf9f4" font-family="Arial,sans-serif" font-size="17">PROPERTY</text><circle cx="940" cy="250" r="62" fill="none" stroke="#c5c6ca" stroke-width="3"/><path d="M940 250L600 340" stroke="#fedb95" stroke-opacity=".5" stroke-width="3"/><text x="940" y="256" text-anchor="middle" fill="#faf9f4" font-family="Arial,sans-serif" font-size="17">PROCUREMENT</text><circle cx="940" cy="430" r="62" fill="none" stroke="#c5c6ca" stroke-width="3"/><path d="M940 430L600 340" stroke="#fedb95" stroke-opacity=".5" stroke-width="3"/><text x="940" y="436" text-anchor="middle" fill="#faf9f4" font-family="Arial,sans-serif" font-size="17">PARTNERSHIPS</text><circle cx="600" cy="490" r="38" fill="none" stroke="#c5c6ca" stroke-width="3"/><path d="M600 445L600 452" stroke="#fedb95" stroke-opacity=".5" stroke-width="3"/><text x="600" y="495" text-anchor="middle" fill="#faf9f4" font-family="Arial,sans-serif" font-size="13">MEASUREMENT</text><text x="72" y="585" fill="#fedb95" font-family="Arial, sans-serif" font-size="20" letter-spacing="4">AFRODESCENDANT ALI • ORIGINAL EDITORIAL DIAGRAM</text></svg>